<?xml version="1.0" encoding="utf-8"?>
<!-- Generator: Adobe Illustrator 16.0.0, SVG Export Plug-In . SVG Version: 6.00 Build 0)  -->
<!DOCTYPE svg PUBLIC "-//W3C//DTD SVG 1.1//EN" "http://www.w3.org/Graphics/SVG/1.1/DTD/svg11.dtd">
<svg version="1.1" id="Layer_1" xmlns="http://www.w3.org/2000/svg" xmlns:xlink="http://www.w3.org/1999/xlink" x="0px" y="0px"
	 width="100px" height="100px" viewBox="0 0 100 100" enable-background="new 0 0 100 100" xml:space="preserve">
<title>IMDb icon</title>
<path fill="#E4BC49" d="M59.625,39.95v0.021c-0.32-0.2-0.945-0.292-1.75-0.292v20.063c1.125,0,1.834-0.25,2.084-0.688
	c0.258-0.434,0.395-1.688,0.395-3.688V43.425c0-1.375-0.016-2.25-0.137-2.625c-0.092-0.4-0.279-0.679-0.584-0.85H59.625z M93.4,0
	H6.75C3.092,0.25,0.25,3.1,0,6.65v86.6c0.25,3.642,2.967,6.425,6.479,6.737C6.542,100,6.604,100,6.667,100h86.855
	c3.666-0.367,6.457-3.441,6.479-7.125V7.125C100,3.417,97.104,0.292,93.4,0z M19.967,65.108h-7.938V34.417h7.938V65.108z
	 M47.217,65.1h-6.925V44.392L37.5,65.096h-4.95l-2.908-20.25l-0.029,20.25h-6.946V34.417H32.95c0.346,2.179,0.667,4.367,0.958,6.559
	l1.125,7.792l1.842-14.35h10.346V65.1H47.217z M67.954,56.017c0,2.729-0.183,4.559-0.433,5.5c-0.259,0.917-0.709,1.667-1.359,2.167
	c-0.625,0.541-1.416,0.908-2.375,1.107c-0.929,0.188-2.375,0.313-4.25,0.313l-0.016-0.008h-9.605V34.417h5.942
	c3.808,0,6.042,0.196,7.375,0.534c1.354,0.375,2.396,0.938,3.104,1.75c0.688,0.75,1.137,1.683,1.304,2.688
	c0.208,0.979,0.317,2.938,0.317,5.841v10.784L67.954,56.017z M88.555,57.996c0,1.875-0.188,3.184-0.375,4.125
	c-0.25,0.934-0.813,1.684-1.688,2.366c-0.942,0.692-2,1-3.25,1c-0.917,0-2.084-0.25-2.834-0.566
	c-0.791-0.392-1.492-0.987-2.146-1.779L77.779,65.1h-7.154V34.417l-0.084-0.012h7.5v10c0.625-0.729,1.313-1.292,2.125-1.667
	c0.817-0.346,1.942-0.529,2.875-0.529c0.942-0.013,1.875,0.15,2.75,0.479c0.709,0.292,1.334,0.771,1.817,1.375
	c0.375,0.521,0.625,1.125,0.75,1.75c0.125,0.575,0.183,1.792,0.183,3.625v8.559H88.555z M79.5,46.688c-0.5,0-0.809,0.167-0.938,0.5
	c-0.125,0.333-0.25,1.208-0.25,2.6v8.109c0,1.35,0.125,2.221,0.25,2.596c0.166,0.357,0.541,0.583,0.941,0.558
	c0.5,0,1.134-0.196,1.25-0.583c0.125-0.404,0.191-1.334,0.191-2.809l0.125-0.008v-7.875c0-1.262-0.063-2.117-0.25-2.512
	c-0.183-0.417-0.813-0.583-1.313-0.583L79.5,46.688z"/>
</svg>
